# xmcd
#
# Track frame offsets:
# 150
# 10717
# 22042
# 32272
# 42517
# 49412
#
# Disc length: 778 seconds
#
# Revision: 1
# Processed by: cddbd v1.4PL0 Copyright (c) Steve Scherf et al.
# Submitted via: Easy CD Ripper v2.10
#
DISCID=42030806
DTITLE=Various Artist - Maltshops Super Six-Pack
DYEAR=1996
DGENRE=Country
TTITLE0=Slippin' and Slidin' - Tennesee Thompson with The Boom
TTITLE1=Saturday Ball - Tennesee Thompson with The Boom
TTITLE2=Teenage Rose - Joey and His Combo
TTITLE3=Darlene - Eugene Smith
TTITLE4=Hey Little Baby - Ronnie Haig
TTITLE5=Traveller Of Love - Ronnie Haig
EXTD=Submitted by Kangaroo Hop
EXTT0=
EXTT1=
EXTT2=
EXTT3=
EXTT4=
EXTT5=
PLAYORDER=
